<?xml version="1.0" encoding="utf-8"?>
<!-- Generator: Adobe Illustrator 22.0.0, SVG Export Plug-In . SVG Version: 6.00 Build 0)  -->
<svg version="1.1" id="Layer_1" xmlns="http://www.w3.org/2000/svg" xmlns:xlink="http://www.w3.org/1999/xlink" x="0px" y="0px"
	 viewBox="0 0 221.7 39.7" style="enable-background:new 0 0 221.7 39.7;" xml:space="preserve">
<style type="text/css">
	.st0{fill:#2D3540;}
	.st1{fill:#FF8C00;}
</style>
<g>
	<path class="st0" d="M143.4,8.9h3v9h3.2l5.4-9h3.3l-6.2,10.2v0.1l6.6,11.2h-3.4l-5.7-9.8h-3.2v9.8h-3L143.4,8.9z M169.2,20.8h0.8
		v-0.3c0-2.5-1.5-3.4-3.4-3.4c-1.5,0-3.1,0.6-4.3,1.5l-1.2-2.2c1.2-1,3.6-1.8,5.7-1.8c3.9,0,6.1,2.1,6.1,6v9.7h-2.8v-1.5
		c0-0.4,0-0.8,0.1-1.2h-0.1c-1,1.9-2.9,3.1-5,3.1c-2.7,0-5.1-1.7-5.1-4.6C160.1,21.3,166.1,20.8,169.2,20.8z M165.9,28.4
		c2.6,0,4.1-2.6,4.1-4.9v-0.6h-0.8c-2.2,0-6.2,0.2-6.2,3C163,27.1,164,28.4,165.9,28.4z M184.5,14.6c2,0,4.3,0.7,5.8,2.2l-1.4,2.1
		c-1.1-1.1-2.7-1.7-4.2-1.8c-3.1,0-5.3,2.3-5.3,5.5s2.2,5.5,5.4,5.5c1.7,0,3.5-0.8,4.7-2.1l1.2,2.2c-1.4,1.5-3.7,2.5-6.1,2.5
		c-4.9,0-8.2-3.4-8.2-8C176.3,18.1,179.7,14.6,184.5,14.6z M200.7,14.6c2,0,4.3,0.7,5.8,2.2l-1.4,2.1c-1.1-1.1-2.7-1.7-4.2-1.8
		c-3.1,0-5.3,2.3-5.3,5.5s2.2,5.5,5.4,5.5c1.7,0,3.5-0.8,4.7-2.1l1.2,2.2c-1.4,1.5-3.7,2.5-6.1,2.5c-4.9,0-8.2-3.4-8.2-8
		C192.5,18.1,195.9,14.6,200.7,14.6L200.7,14.6z M217.9,20.8h0.8v-0.3c0-2.5-1.5-3.4-3.4-3.4c-1.5,0-3.1,0.6-4.3,1.5l-1.2-2.2
		c1.2-1,3.6-1.8,5.7-1.8c3.9,0,6.1,2.1,6.1,6v9.7h-2.8v-1.5c0-0.4,0-0.8,0.1-1.2h-0.1c-1,1.9-2.9,3.1-5,3.1c-2.7,0-5.1-1.7-5.1-4.6
		C208.8,21.3,214.7,20.8,217.9,20.8z M214.6,28.4c2.6,0,4.1-2.6,4.1-4.9v-0.6H218c-2.2,0-6.2,0.2-6.2,3
		C211.7,27.1,212.7,28.4,214.6,28.4L214.6,28.4z"/>
	<path class="st1" d="M91.8,9.4v20.9c0,0.3-0.3,0.6-0.6,0.6H87c-0.3,0-0.6-0.3-0.6-0.6V9.4c0-0.3,0.3-0.6,0.6-0.6h4.3
		C91.5,8.9,91.8,9.1,91.8,9.4 M125.1,8.9h-4.8c-0.2,0-0.5,0.2-0.5,0.4L116,21.6l-4.2-12.4c-0.1-0.2-0.3-0.4-0.5-0.4H108
		c-0.2,0-0.5,0.2-0.5,0.4l-4.2,12.4L99.5,9.3c-0.1-0.2-0.3-0.4-0.5-0.4h-4.8c-0.2,0-0.3,0.1-0.5,0.2c-0.1,0.1-0.1,0.3-0.1,0.5l7,21
		c0.1,0.2,0.3,0.4,0.5,0.4h3.8c0.2,0,0.5-0.2,0.5-0.4l4.1-12.2l4.1,12.2c0.1,0.2,0.3,0.4,0.5,0.4h3.8c0.2,0,0.5-0.2,0.5-0.4l7-20.9
		c0.1-0.2,0-0.4-0.1-0.5C125.5,8.9,125.3,8.9,125.1,8.9 M132.3,8.9h-4.3c-0.3,0-0.6,0.3-0.6,0.6v20.9c0,0.3,0.3,0.6,0.6,0.6h4.3
		c0.3,0,0.6-0.3,0.6-0.6V9.4C132.9,9.1,132.7,8.9,132.3,8.9 M83.9,30.2c0.2,0.2,0.1,0.5,0,0.6c-0.1,0.1-0.2,0.1-0.3,0.1h-5.2
		c-0.2,0-0.4-0.1-0.6-0.3l-0.9-1.1c-5.4,3.5-12.5,1.9-16-3.4c-3.5-5.4-1.9-12.5,3.4-16c5.4-3.5,12.5-1.9,16,3.4
		c2.5,3.8,2.5,8.7,0,12.6L83.9,30.2z M73.5,25.5l-2.3-2.8c-0.2-0.2-0.1-0.5,0.1-0.6c0.1-0.1,0.2-0.1,0.3-0.1h4.8
		c0.2-0.7,0.4-1.4,0.4-2.2c0-3.5-2.6-6.4-6.1-6.4s-6.1,3-6.1,6.4s2.6,6.4,6.1,6.4C71.6,26.3,72.6,26,73.5,25.5"/>
	<path class="st1" d="M50.2,19.9c0,11-8.9,19.9-19.9,19.9c-5.9,0-11.6-2.7-15.3-7.2h15.5c7-0.1,12.6-5.8,12.5-12.8
		c-0.1-6.8-5.6-12.4-12.5-12.5c-0.2,0-15.2,0-15.5,0c7-8.5,19.5-9.7,28-2.7C47.5,8.3,50.2,13.9,50.2,19.9L50.2,19.9z"/>
	<path class="st1" d="M27.3,10.8c0-0.3-0.3-0.6-0.6-0.6H6.2c-0.3,0-0.6,0.3-0.6,0.6c0,0,0,0,0,0v3.1c0,0.3,0.3,0.6,0.6,0.6h20.5
		c0.3,0,0.6-0.3,0.6-0.6L27.3,10.8z"/>
	<path class="st1" d="M19.4,18.3c0-0.4-0.2-0.6-0.5-0.6H0.5C0.2,17.7,0,18,0,18.3v3.1C0,21.8,0.2,22,0.5,22h18.4
		c0.3,0,0.5-0.3,0.5-0.6V18.3z"/>
	<path class="st1" d="M27.3,25.9c0-0.3-0.3-0.6-0.6-0.6H6.2c-0.3,0-0.6,0.3-0.6,0.6c0,0,0,0,0,0v3.1c0,0.3,0.3,0.6,0.6,0.6h20.5
		c0.3,0,0.6-0.3,0.6-0.6L27.3,25.9z"/>
</g>
</svg>
