<?xml version="1.0" encoding="UTF-8"?>
<svg width="302px" height="302px" viewBox="0 0 302 302" version="1.1" xmlns="http://www.w3.org/2000/svg" xmlns:xlink="http://www.w3.org/1999/xlink">
    <!-- Generator: Sketch 52.4 (67378) - http://www.bohemiancoding.com/sketch -->
    <title>Group 2</title>
    <desc>Created with Sketch.</desc>
    <defs>
        <rect id="path-1" x="0" y="0" width="200" height="47" rx="23.5"></rect>
        <filter x="-14.2%" y="-35.1%" width="128.5%" height="221.3%" filterUnits="objectBoundingBox" id="filter-2">
            <feOffset dx="0" dy="12" in="SourceAlpha" result="shadowOffsetOuter1"></feOffset>
            <feGaussianBlur stdDeviation="7.5" in="shadowOffsetOuter1" result="shadowBlurOuter1"></feGaussianBlur>
            <feColorMatrix values="0 0 0 0 1   0 0 0 0 0.549019608   0 0 0 0 0  0 0 0 0.2 0" type="matrix" in="shadowBlurOuter1"></feColorMatrix>
        </filter>
    </defs>
    <g id="Виджеты-для-всех" stroke="none" stroke-width="1" fill="none" fill-rule="evenodd">
        <g id="widget_main-1280-ver_2" transform="translate(-809.000000, -296.000000)">
            <g id="1_block" transform="translate(-86.000000, 87.000000)">
                <g id="main" transform="translate(256.000000, 25.000000)">
                    <g id="Group-2" transform="translate(640.000000, 185.000000)">
                        <path d="M-0.5,10.0029514 C-0.5,4.20070286 4.19913765,-0.5 10.0029514,-0.5 L289.997049,-0.5 C295.799297,-0.5 300.5,4.19913765 300.5,10.0029514 L300.5,289.997049 C300.5,295.799297 295.800862,300.5 289.997049,300.5 L10.0029514,300.5 C4.20070286,300.5 -0.5,295.800862 -0.5,289.997049 L-0.5,10.0029514 Z" id="300x300" stroke="#E7E7E7" fill="#FFFFFF"></path>
                        <g id="v2-Диапазон" transform="translate(51.000000, 70.000000)">
                            <rect id="Rectangle-2" fill="#FFFFFF" x="0" y="0" width="120" height="34"></rect>
                            <text id="Сумма" font-family="MuseoSansCyrl-300, Museo Sans Cyrl" font-size="20" font-weight="300" fill="#000000" fill-opacity="0.54">
                                <tspan x="2" y="23">Сумма</tspan>
                            </text>
                            <polygon id="Rectangle-1" fill="#FF8C00" points="3 34 197 34 197 36 3 36"></polygon>
                        </g>
                        <g id="Promo-Button-Copy-18" transform="translate(51.000000, 122.000000)">
                            <g id="R">
                                <use fill="black" fill-opacity="1" filter="url(#filter-2)" xlink:href="#path-1"></use>
                                <use fill="#FF8C00" fill-rule="evenodd" xlink:href="#path-1"></use>
                            </g>
                        </g>
                    </g>
                </g>
            </g>
        </g>
    </g>
</svg>