<?xml version="1.0" encoding="UTF-8"?>
<svg width="17px" height="20px" viewBox="0 0 17 20" version="1.1" xmlns="http://www.w3.org/2000/svg" xmlns:xlink="http://www.w3.org/1999/xlink">
    <!-- Generator: Sketch 52.4 (67378) - http://www.bohemiancoding.com/sketch -->
    <title>Icon</title>
    <desc>Created with Sketch.</desc>
    <defs>
        <path d="M4,20 L4,2 L8,4 L12,2 L16,4 L20,2 L20,20 C20,21.1045695 19.1045695,22 18,22 L6,22 C4.8954305,22 4,21.1045695 4,20 Z M6,5.23606798 L6,19 C6,19.5522847 6.44771525,20 7,20 L17,20 C17.5522847,20 18,19.5522847 18,19 L18,5.23606798 L15.8563147,6.30791064 L12,4.40370085 L8.14368532,6.30791064 L6,5.23606798 Z M9,15 L15,15 C15.5522847,15 16,15.4477153 16,16 C16,16.5522847 15.5522847,17 15,17 L9,17 C8.44771525,17 8,16.5522847 8,16 C8,15.4477153 8.44771525,15 9,15 Z M9,10 L15,10 C15.5522847,10 16,10.4477153 16,11 C16,11.5522847 15.5522847,12 15,12 L9,12 C8.44771525,12 8,11.5522847 8,11 C8,10.4477153 8.44771525,10 9,10 Z" id="path-1"></path>
    </defs>
    <g id="Виджеты-для-всех" stroke="none" stroke-width="1" fill="none" fill-rule="evenodd">
        <g id="widget_main-1280-ver_2" transform="translate(-471.000000, -1883.000000)">
            <g id="728x200_1-copy" transform="translate(382.000000, 1806.000000)">
                <g id="code">
                    <g id="button" transform="translate(0.000000, 57.000000)">
                        <g id="Buttons/Accent/Left-icon/Simply-with-icon">
                            <g id="Text-and-icon" transform="translate(147.320000, 30.000000) rotate(-180.000000) translate(-147.320000, -30.000000) translate(52.320000, 18.000000)">
                                <g id="1_Icons/24x24/Black/Check" transform="translate(145.000000, 12.000000) rotate(-180.000000) translate(-145.000000, -12.000000) translate(133.000000, 0.000000)">
                                    <mask id="mask-2" fill="white">
                                        <use xlink:href="#path-1"></use>
                                    </mask>
                                    <use id="Mask" fill="#CCCCCC" fill-rule="nonzero" transform="translate(12.000000, 12.000000) scale(1, -1) translate(-12.000000, -12.000000) " xlink:href="#path-1"></use>
                                </g>
                            </g>
                        </g>
                    </g>
                </g>
            </g>
        </g>
    </g>
</svg>